<svg width="14" height="14" viewBox="0 0 14 14" fill="none" xmlns="http://www.w3.org/2000/svg">
<path d="M4.45919 3.16452C4.40416 3.1027 4.37427 3.02146 4.37568 2.93758C4.37708 2.85369 4.40968 2.77356 4.46675 2.71374C4.49448 2.68485 4.52764 2.66209 4.56419 2.64685C4.60074 2.6316 4.63992 2.62419 4.67934 2.62507C4.71876 2.62594 4.75759 2.63509 4.79347 2.65194C4.82935 2.66879 4.86152 2.693 4.88803 2.72309L8.75 7.00024L4.88803 11.2768C4.86154 11.3069 4.82938 11.3311 4.7935 11.348C4.75762 11.3649 4.71877 11.3741 4.67934 11.3749C4.63991 11.3758 4.60072 11.3684 4.56416 11.3531C4.52761 11.3378 4.49446 11.315 4.46675 11.2861C4.3488 11.1645 4.34275 10.965 4.45919 10.8353L7.89474 6.99993L4.45919 3.16452Z" fill="white" fill-opacity="0.5"/>
</svg>
