<svg width="20" height="20" viewBox="0 0 20 20" fill="none" xmlns="http://www.w3.org/2000/svg">
<path fill-rule="evenodd" clip-rule="evenodd" d="M6 2C3.79086 2 2 3.79086 2 6V14C2 16.2091 3.79086 18 6 18H14C16.2091 18 18 16.2091 18 14V6C18 3.79086 16.2091 2 14 2H6ZM6.68855 5.87109V6.19987L11.2327 14.3584L13.5693 13.9496V13.609L9.03694 5.87109H6.68855ZM11.7472 5.87109L11.3384 8.81833L13.5693 12.6345L14.387 5.87109H11.7472ZM8.91952 10.9906L6.68855 7.17445L5.87088 14.3584L8.51068 13.9496L8.91952 10.9906Z" fill="#FFD178"/>
</svg>
