<svg width="20" height="20" viewBox="0 0 20 20" fill="none" xmlns="http://www.w3.org/2000/svg">
<path d="M10.0001 1.6665C14.6024 1.6665 18.3334 5.39755 18.3334 9.99984C18.3334 14.6021 14.6024 18.3332 10.0001 18.3332C5.39779 18.3332 1.66675 14.6021 1.66675 9.99984C1.66675 5.39755 5.39779 1.6665 10.0001 1.6665ZM12.8005 11.3888C12.5418 11.9103 12.1425 12.3492 11.6477 12.6559C11.1529 12.9627 10.5822 13.1251 10.0001 13.1248C9.41805 13.1251 8.84752 12.9627 8.35281 12.6561C7.85809 12.3495 7.45885 11.9108 7.20008 11.3894C7.16427 11.3147 7.11397 11.2479 7.05211 11.1928C6.99024 11.1378 6.91805 11.0955 6.83972 11.0686C6.76139 11.0417 6.67849 11.0306 6.59584 11.036C6.51318 11.0414 6.43242 11.0631 6.35826 11.1C6.28409 11.1369 6.21799 11.1881 6.16381 11.2508C6.10962 11.3134 6.06843 11.3862 6.04262 11.4649C6.01682 11.5436 6.00691 11.6267 6.01349 11.7092C6.02006 11.7918 6.04298 11.8722 6.08091 11.9459C6.44321 12.6755 7.00205 13.2895 7.69449 13.7186C8.38693 14.1478 9.18544 14.3751 10.0001 14.3748C10.8149 14.3751 11.6135 14.1478 12.306 13.7185C12.9986 13.2892 13.5574 12.6751 13.9197 11.9453C13.9907 11.7972 14.0005 11.6271 13.9471 11.4718C13.8938 11.3165 13.7814 11.1885 13.6344 11.1154C13.4873 11.0423 13.3174 11.03 13.1614 11.0811C13.0053 11.1323 12.8757 11.2428 12.8005 11.3888Z" fill="#FFD178"/>
</svg>
