<svg width="20" height="20" viewBox="0 0 20 20" fill="none" xmlns="http://www.w3.org/2000/svg">
<path d="M17.9138 11.7699C17.3937 7.24079 16.4735 4 13.5528 4C12.0724 4 11.3122 5.52037 9.99188 5.6404C8.63155 5.52037 7.91137 4 6.43101 4C3.51029 4 2.59007 7.24079 2.10195 11.7299C1.82188 14.1305 2.06194 16.131 3.5423 16.131C5.62281 16.131 5.70283 14.2505 7.1912 13.3703C7.75133 13.0902 8.99164 12.9622 10.0319 12.9302C11.0721 12.9702 12.3124 13.0902 12.8726 13.3703C14.3529 14.2505 14.433 16.131 16.5215 16.131C17.9538 16.171 18.1539 14.1705 17.9138 11.7699ZM6.46302 11.3618C5.31073 11.3378 4.39851 10.3856 4.43052 9.23328C4.45452 8.12101 5.35074 7.22479 6.46302 7.20078C7.6073 7.19278 8.53552 8.11301 8.54353 9.25729V9.2893C8.54353 10.4336 7.6153 11.3618 6.46302 11.3618ZM15.7933 9.68139H14.1529V11.3298H13.3527V9.68139H11.7123V8.8812H13.3527V7.2808H14.1529V8.8812H15.7933V9.68139Z" fill="#FFD178"/>
<path d="M5.2627 9.28135C5.2627 9.60143 5.39073 9.9055 5.62278 10.1216C5.84684 10.3456 6.15091 10.4736 6.46299 10.4816C6.78307 10.4816 7.08714 10.3536 7.30319 10.1216C7.52725 9.8975 7.65528 9.60143 7.67129 9.28135C7.67129 8.96127 7.54325 8.6572 7.3112 8.44114C7.08714 8.21709 6.78307 8.08906 6.47099 8.08105C6.15091 8.08105 5.84684 8.20909 5.63079 8.44114C5.39073 8.6572 5.2627 8.96927 5.2627 9.28135Z" fill="#FFD178"/>
</svg>
