<svg width="20" height="20" viewBox="0 0 20 20" fill="none" xmlns="http://www.w3.org/2000/svg">
<path fill-rule="evenodd" clip-rule="evenodd" d="M2.60896 13.0615C2.20693 12.0909 2 11.0506 2 10C2 7.87827 2.84285 5.84344 4.34315 4.34315C5.84344 2.84285 7.87827 2 10 2C12.1217 2 14.1566 2.84285 15.6569 4.34315C17.1571 5.84344 18 7.87827 18 10C18 11.0506 17.7931 12.0909 17.391 13.0615C16.989 14.0321 16.3997 14.914 15.6569 15.6569C14.914 16.3997 14.0321 16.989 13.0615 17.391C12.0909 17.7931 11.0506 18 10 18C8.94942 18 7.90914 17.7931 6.93853 17.391C5.96793 16.989 5.08601 16.3997 4.34315 15.6569C3.60028 14.914 3.011 14.0321 2.60896 13.0615ZM12.3857 13.4325C12.2834 13.3302 12.1446 13.2727 12 13.2727H7.99997C7.85531 13.2727 7.71657 13.3302 7.61428 13.4325C7.51198 13.5348 7.45452 13.6735 7.45452 13.8182C7.45452 13.9628 7.51198 14.1016 7.61428 14.2039C7.71657 14.3062 7.85531 14.3636 7.99997 14.3636H12C12.1446 14.3636 12.2834 14.3062 12.3857 14.2039C12.488 14.1016 12.5454 13.9628 12.5454 13.8182C12.5454 13.6735 12.488 13.5348 12.3857 13.4325ZM10.3857 5.79612C10.2834 5.69383 10.1446 5.63636 9.99997 5.63636C9.85531 5.63636 9.71657 5.69383 9.61428 5.79612C9.51198 5.89842 9.45452 6.03715 9.45452 6.18182V10.0527L8.40215 8.904L8.36215 8.86509C8.25763 8.77218 8.1214 8.72297 7.98163 8.72762C7.84186 8.73227 7.70921 8.79044 7.61109 8.89009C7.51297 8.98975 7.45688 9.12329 7.45441 9.26312C7.45193 9.40295 7.50326 9.53839 7.59779 9.64145L9.59779 11.8233L9.63743 11.8622C9.74446 11.9574 9.88467 12.0068 10.0278 11.9995C10.1709 11.9922 10.3053 11.9289 10.4022 11.8233L12.4022 9.64145L12.4378 9.59855C12.5228 9.48644 12.5613 9.34582 12.545 9.20605C12.5288 9.06628 12.4592 8.93818 12.3508 8.84852C12.2424 8.75885 12.1035 8.71457 11.9631 8.72491C11.8228 8.73525 11.6919 8.79941 11.5978 8.904L10.5454 10.052V6.18182C10.5454 6.03715 10.488 5.89842 10.3857 5.79612Z" fill="#FFD178"/>
</svg>
