<svg width="46" height="46" viewBox="0 0 46 46" fill="none" xmlns="http://www.w3.org/2000/svg">
<rect width="46" height="46" rx="23" fill="#CAFFBC"/>
<path fill-rule="evenodd" clip-rule="evenodd" d="M29.0623 32.0886L21.1591 36.6466L13 32.0602L21.0098 27.4453L29.0623 32.0886Z" fill="#14D7D7"/>
<path fill-rule="evenodd" clip-rule="evenodd" d="M32.9931 25.8972V28.9998C32.9931 29.511 32.7231 29.9511 32.3251 30.1925L29.0344 32.0882L20.9819 27.4449L28.9847 22.8301L32.2682 24.7257C32.6875 24.9529 32.9789 25.3931 32.9931 25.9043V25.8972Z" fill="#16EFD2"/>
<path fill-rule="evenodd" clip-rule="evenodd" d="M13 32.06V22.8232L21.0098 27.4452L13 32.06Z" fill="#12C2DB"/>
<path fill-rule="evenodd" clip-rule="evenodd" d="M21.0098 27.4453L13 22.8233L21.0098 18.2085L29.0197 22.8233L21.0098 27.4453Z" fill="#10AFDF"/>
<path fill-rule="evenodd" clip-rule="evenodd" d="M13 22.8232V13.5864L21.0098 18.2084L13 22.8232Z" fill="#0D8EE5"/>
<path fill-rule="evenodd" clip-rule="evenodd" d="M33.0002 16.7391V19.7139V19.721C33.0002 20.2251 32.7231 20.6724 32.3108 20.9067L28.9918 22.8236L20.9819 18.2017L28.9349 13.6152L32.3108 15.5677C32.716 15.802 32.986 16.2421 32.9931 16.7391H33.0002Z" fill="#0B73EA"/>
<path fill-rule="evenodd" clip-rule="evenodd" d="M20.9459 9H20.953L28.9628 13.6148L21.0098 18.2084L13 13.5864L20.9459 9Z" fill="#095EEE"/>
</svg>
