<svg width="33" height="32" viewBox="0 0 33 32" fill="none" xmlns="http://www.w3.org/2000/svg">
<path d="M26.5594 6.69163C26.5512 6.6758 26.5376 6.66339 26.5212 6.65663C24.615 5.78207 22.6034 5.15843 20.5369 4.80133C20.5181 4.79784 20.4987 4.80036 20.4814 4.80853C20.4642 4.8167 20.4499 4.8301 20.4407 4.84683C20.1668 5.34398 19.9181 5.85463 19.6957 6.37683C17.468 6.03868 15.2021 6.03868 12.9744 6.37683C12.7505 5.8533 12.4979 5.34253 12.2177 4.84683C12.208 4.83047 12.1937 4.81737 12.1766 4.80926C12.1594 4.80114 12.1402 4.79838 12.1215 4.80133C10.0546 5.15768 8.04297 5.78136 6.13706 6.65668C6.12074 6.6636 6.10697 6.67541 6.09766 6.69048C2.28621 12.3824 1.24211 17.9343 1.75431 23.4175C1.75575 23.431 1.75988 23.444 1.76645 23.4558C1.77302 23.4676 1.7819 23.478 1.79256 23.4863C4.01193 25.1296 6.49432 26.3839 9.13381 27.1957C9.15239 27.2013 9.17224 27.2011 9.19068 27.195C9.20913 27.189 9.22527 27.1774 9.23696 27.1619C9.80386 26.3906 10.3062 25.5738 10.7388 24.7198C10.7448 24.7081 10.7481 24.6953 10.7488 24.6821C10.7494 24.669 10.7472 24.6559 10.7424 24.6437C10.7376 24.6315 10.7302 24.6204 10.7208 24.6112C10.7114 24.602 10.7002 24.595 10.6879 24.5904C9.89573 24.2873 9.12887 23.922 8.39446 23.4978C8.38111 23.4899 8.36991 23.4789 8.36183 23.4657C8.35375 23.4525 8.34905 23.4375 8.34813 23.4221C8.34722 23.4067 8.35012 23.3912 8.35659 23.3772C8.36305 23.3631 8.37288 23.3508 8.38521 23.3415C8.53974 23.226 8.6916 23.1071 8.84066 22.9846C8.85373 22.9739 8.86955 22.967 8.88633 22.9647C8.90312 22.9624 8.9202 22.9649 8.93566 22.9718C13.7471 25.1677 18.9562 25.1677 23.7107 22.9718C23.7261 22.9645 23.7434 22.9617 23.7604 22.9637C23.7775 22.9658 23.7936 22.9726 23.8069 22.9835C23.9561 23.1066 24.1083 23.2259 24.2635 23.3415C24.2758 23.3507 24.2858 23.3629 24.2923 23.3769C24.2989 23.3909 24.3019 23.4063 24.3011 23.4218C24.3003 23.4372 24.2957 23.4523 24.2877 23.4655C24.2798 23.4788 24.2686 23.4898 24.2554 23.4978C23.5226 23.9256 22.7551 24.2907 21.9609 24.5893C21.9485 24.594 21.9373 24.6012 21.928 24.6105C21.9186 24.6199 21.9114 24.631 21.9067 24.6434C21.9019 24.6557 21.8999 24.6689 21.9006 24.6821C21.9013 24.6952 21.9048 24.7081 21.9109 24.7198C22.3507 25.569 22.8523 26.3848 23.4116 27.1606C23.4229 27.1765 23.439 27.1884 23.4575 27.1947C23.476 27.201 23.496 27.2013 23.5147 27.1956C26.1589 26.3865 28.6457 25.132 30.8678 23.4863C30.8786 23.4784 30.8876 23.4683 30.8942 23.4566C30.9008 23.445 30.9049 23.432 30.9061 23.4187C31.5193 17.0795 29.8795 11.5731 26.5594 6.69163ZM11.4574 20.0788C10.0088 20.0788 8.81516 18.7495 8.81516 17.1169C8.81516 15.4843 9.98561 14.1548 11.4574 14.1548C12.9406 14.1548 14.1227 15.4958 14.0995 17.1168C14.0995 18.7495 12.929 20.0788 11.4574 20.0788ZM21.2264 20.0788C19.7778 20.0788 18.5842 18.7495 18.5842 17.1169C18.5842 15.4843 19.7547 14.1548 21.2264 14.1548C22.7097 14.1548 23.8917 15.4958 23.8686 17.1168C23.8686 18.7495 22.7097 20.0788 21.2264 20.0788Z" fill="black"/>
</svg>
