<svg width="20" height="20" viewBox="0 0 20 20" fill="none" xmlns="http://www.w3.org/2000/svg">
<path d="M9.10778 1.59873L5.52762 2.9889C5.47986 3.01034 5.43284 3.03338 5.38663 3.05798C5.23884 3.13358 5.11832 3.21857 5.02282 3.31862C4.81249 3.53407 4.73746 3.80209 4.74769 4.18267V8.40634L1.01403 9.80619C0.795738 9.8727 0.597912 9.9878 0.444437 10.1396C0.231821 10.34 0.105627 10.6049 0.116999 10.9408V13.5609L0.11586 15.3185C0.11586 15.991 0.245472 16.1377 0.842346 16.4583L4.63057 18.4559C5.18539 18.6633 5.42529 18.7623 6.03012 18.4559L6.21885 18.3587L9.64212 16.5919V16.5913L9.64326 16.5908L9.6444 16.5902L9.64554 16.5891L9.64668 16.5885L9.64782 16.5874L9.6501 16.5862L9.65123 16.5851L9.65351 16.5839L9.65577 16.5822L9.65805 16.5811L9.66031 16.5794L9.66373 16.5777L9.66601 16.5759L9.6694 16.5742L9.67282 16.572L9.67624 16.5703L9.67964 16.568L9.68303 16.5663L9.68759 16.564L9.69101 16.5618L9.69556 16.5595L9.70012 16.5572L9.70468 16.555L9.70924 16.5527L9.71379 16.5498L9.71947 16.5476L9.72403 16.5453L9.72972 16.5424L9.73542 16.5402L9.74109 16.5373L9.74677 16.5351L9.7536 16.5328L9.75928 16.5299L9.7661 16.5271L9.77179 16.5248L9.77861 16.5226L9.78544 16.5197L9.79226 16.5174L9.80021 16.5152L9.80703 16.5129L9.81384 16.5106L9.8218 16.5083L9.82975 16.5055L9.83771 16.5038L9.84566 16.5015L9.85362 16.4993L9.86157 16.497L9.87067 16.4953L9.87862 16.493L9.88771 16.4913L9.89681 16.4896L9.9059 16.4879L9.915 16.4862L9.92409 16.485L9.93318 16.4833L9.94228 16.4822L9.95251 16.481L9.9616 16.4799H9.96274L9.97184 16.4788L9.98207 16.4782L9.9923 16.4771L10.0025 16.4782L10.0128 16.4788L10.0219 16.4799L10.0321 16.481L10.0412 16.4822L10.0514 16.4833L10.0605 16.485L10.0696 16.4862L10.0787 16.4879L10.0878 16.4896L10.0969 16.4913L10.1049 16.493H10.106L10.114 16.4953L10.1219 16.497L10.131 16.4993L10.1389 16.5015L10.1469 16.5038L10.1537 16.5055L10.1617 16.5083L10.1696 16.5106L10.1776 16.5129L10.1844 16.5152L10.1912 16.5174L10.1992 16.5197L10.2049 16.5226L10.2117 16.5248L10.2185 16.5271L10.2253 16.5299L10.231 16.5328L10.2367 16.5351L10.2435 16.5373L10.2492 16.5402L10.2549 16.5424L10.2594 16.5453L10.2651 16.5476L10.2697 16.5498L10.2754 16.5527L10.2799 16.555L10.2845 16.5572L10.289 16.5595L10.2936 16.5618L10.297 16.564L10.3016 16.5663L10.305 16.568L10.3084 16.5703L10.3118 16.572L10.3152 16.5742L10.3186 16.5759L10.3209 16.5777L10.3243 16.5794L10.3266 16.5811L10.3288 16.5822L10.3311 16.5839L10.3334 16.5851L10.3345 16.5862L10.3357 16.5874L10.3379 16.5885L10.3391 16.5891L10.3402 16.5902V16.5908H10.3414L10.3425 16.5913V16.5919L13.7658 18.3587L13.9545 18.4559C14.5582 18.7623 14.7992 18.6633 15.354 18.4559L19.074 16.4947C19.58 16.2258 19.8403 16.0996 19.8653 15.4857C19.9063 14.891 19.8676 14.1697 19.8676 13.5608V10.9408C19.879 10.6048 19.7528 10.34 19.5391 10.1396C19.3856 9.98778 19.1889 9.87268 18.9695 9.80617L15.237 8.40632L15.2358 4.18265C15.2472 3.80207 15.1721 3.53403 14.9618 3.3186C14.8663 3.21855 14.7447 3.13356 14.598 3.05796C14.5105 3.01163 14.432 2.97865 14.341 2.94341L10.8769 1.59873C10.6165 1.49726 10.2754 1.34918 9.99232 1.3506C9.70922 1.34916 9.36813 1.49726 9.10778 1.59873ZM5.32636 9.42672L9.26807 11.0437L5.32636 12.6604L1.3858 11.0437L5.32636 9.42672ZM14.6684 9.42672L18.609 11.0437L14.6684 12.6604L10.7267 11.0437L14.6684 9.42672ZM10.6711 6.96414L13.9067 5.58789V8.40718L10.6711 9.728V6.96414ZM6.02558 13.8803L9.26126 12.3938V15.3782L6.02558 17.0296V13.8803ZM15.3176 13.8803L18.5533 12.3938V15.3782L15.3176 17.0296V13.8803ZM9.95821 2.50855L13.8988 4.12553L9.95821 5.74195L6.01763 4.12553L9.95821 2.50855Z" fill="white"/>
</svg>
