<svg width="20" height="20" viewBox="0 0 20 20" fill="none" xmlns="http://www.w3.org/2000/svg">
<path d="M18.9105 12.0135C18.8473 11.6646 18.6249 11.4422 18.3392 11.4422H18.3065C17.8943 11.4422 17.5759 11.1238 17.5759 10.7116C17.5759 10.5851 17.6086 10.4565 17.6392 10.4259C17.7984 10.1076 17.6719 9.75864 17.4167 9.56891H17.384L16.431 9.02809H16.3983C16.3024 8.99537 16.2086 8.96484 16.1126 8.96484C15.9229 8.96484 15.7005 9.0608 15.5718 9.18728C15.4126 9.34647 15.1269 9.5362 14.9677 9.5362C14.8085 9.5362 14.5229 9.34647 14.3637 9.18728C14.2372 9.0608 14.0148 8.96484 13.8228 8.96484C13.7269 8.96484 13.6331 8.99755 13.5372 9.02809H13.5045L12.5188 9.56891L12.4861 9.60162C12.2004 9.79135 12.1044 10.173 12.2309 10.4587C12.2309 10.5219 12.2941 10.6484 12.2941 10.7443C12.2941 11.1565 11.9758 11.4749 11.5636 11.4749H11.5309C11.2452 11.4749 11.0228 11.73 10.9595 12.0462C10.9595 12.0462 10.8636 12.4911 10.8636 12.84C10.8636 13.189 10.9595 13.6338 10.9595 13.6338C11.0228 13.9828 11.2452 14.2052 11.5309 14.2052H11.5636C11.9758 14.2052 12.2941 14.5236 12.2941 14.9357C12.2941 15.0622 12.2614 15.1909 12.2309 15.2214C12.0717 15.5398 12.1982 15.8887 12.4533 16.0785H12.4861L13.439 16.6193H13.4717C13.5677 16.652 13.6615 16.6825 13.7574 16.6825C13.9472 16.6825 14.1696 16.6193 14.2983 16.4601C14.4247 16.3009 14.7431 16.0785 14.9023 16.0785C15.0615 16.0785 15.3472 16.3009 15.5064 16.4601C15.6329 16.5866 15.8248 16.6825 16.0472 16.6825C16.1432 16.6825 16.2369 16.6498 16.3329 16.6193H16.3656L17.3513 16.0785L17.384 16.0457C17.6697 15.856 17.7656 15.4744 17.6392 15.1887C17.6392 15.1255 17.5759 14.999 17.5759 14.903C17.5759 14.4909 17.8943 14.1725 18.3065 14.1725H18.3392C18.6249 14.1725 18.8473 13.95 18.9105 13.6011C18.9105 13.6011 19.0065 13.1562 19.0065 12.8073C19.0065 12.4584 18.9105 12.0135 18.9105 12.0135ZM14.8762 13.4114C14.5578 13.4114 14.2721 13.1257 14.2721 12.8073C14.2721 12.4889 14.5272 12.2033 14.8762 12.2033C15.2251 12.2033 15.4802 12.5216 15.4802 12.8379C15.478 13.1562 15.1924 13.4114 14.8762 13.4114Z" fill="white"/>
<path d="M2.03808 5.34003L9.15605 1.68945L16.3874 5.19392L9.05137 9.49436L2.03808 5.34003ZM1.68916 5.72166L9.21929 9.97849L8.81149 18.213L1.3904 13.7686L1.68916 5.72166Z" fill="white"/>
<path d="M8.96414 10.0418C8.86819 10.0418 8.80495 10.0091 8.7417 9.97857L1.34024 5.75227C1.1178 5.62579 1.02185 5.34011 1.15051 5.11767C1.27699 4.89524 1.56267 4.79928 1.78511 4.92795L9.18876 9.18477C9.41119 9.31126 9.50715 9.59693 9.37848 9.81937C9.31524 9.97856 9.15605 10.0418 8.96414 10.0418Z" fill="white"/>
<path d="M8.99686 10.0418C8.83766 10.0418 8.67847 9.94586 8.5847 9.78666C8.45821 9.56423 8.55199 9.27855 8.77442 9.15207L16.431 4.86253C16.6535 4.73605 16.9392 4.82982 17.0656 5.05225C17.1921 5.27469 17.0983 5.56037 16.8759 5.68685L9.2193 9.97857C9.15605 10.0418 9.0601 10.0418 8.99686 10.0418Z" fill="white"/>
<path d="M16.6229 5.7527C16.5597 5.7527 16.4638 5.71999 16.4005 5.68946L8.80714 1.87751C8.5847 1.75103 8.48875 1.46535 8.5847 1.24291C8.71118 1.02047 8.99686 0.924522 9.2193 1.02047L16.8127 4.83243C17.0351 4.95891 17.1311 5.24459 17.0351 5.46703C16.9719 5.65893 16.8127 5.7527 16.6229 5.7527Z" fill="white"/>
<path d="M1.68917 5.72224C1.52997 5.72224 1.34025 5.62629 1.277 5.46709C1.15052 5.24466 1.24429 4.95898 1.49944 4.8325L8.80714 1.05107C9.02957 0.92459 9.31525 1.01836 9.44174 1.27351C9.56822 1.52866 9.47445 1.78163 9.2193 1.90811L1.9116 5.659C1.84836 5.68953 1.78512 5.72224 1.68917 5.72224ZM9.02957 18.9398C8.93362 18.9398 8.87038 18.9071 8.77443 18.8765L1.43402 14.3951C1.21158 14.2686 1.14834 13.9502 1.27482 13.7278C1.40131 13.5053 1.7197 13.4421 1.94213 13.5686L9.28254 18.0478C9.50498 18.1743 9.56822 18.4927 9.44174 18.7152C9.34578 18.8765 9.18659 18.9398 9.02957 18.9398Z" fill="white"/>
<path d="M9.15605 18.9395C8.99686 18.9395 8.83766 18.8436 8.74389 18.6844C8.61741 18.462 8.71118 18.1763 8.93362 18.0498L11.5069 16.6192C11.7293 16.4927 12.015 16.5865 12.1415 16.8089C12.268 17.0314 12.1742 17.3171 11.9518 17.4435L9.37849 18.8741C9.31525 18.9395 9.2193 18.9395 9.15605 18.9395ZM16.6535 8.04015C16.3983 8.04015 16.1759 7.81771 16.1759 7.56257V5.37309C16.1759 5.11794 16.3983 4.89551 16.6535 4.89551C16.9086 4.89551 17.1311 5.11794 17.1311 5.37309V7.56475C17.1311 7.81771 16.9086 8.04015 16.6535 8.04015Z" fill="white"/>
<path d="M9.15606 18.939C8.90091 18.939 8.67847 18.7166 8.67847 18.4614V9.6621C8.67847 9.40695 8.90091 9.18452 9.15606 9.18452C9.4112 9.18452 9.63364 9.40695 9.63364 9.6621V18.4636C9.63146 18.7166 9.40902 18.939 9.15606 18.939ZM1.56268 14.3638C1.30753 14.3638 1.0851 14.1414 1.0851 13.8862V5.59282C1.0851 5.33767 1.30753 5.11523 1.56268 5.11523C1.81783 5.11523 2.04027 5.33767 2.04027 5.59282V13.8862C2.03809 14.1414 1.81565 14.3638 1.56268 14.3638ZM7.34385 11.8843C7.2479 11.8843 7.18466 11.8516 7.08871 11.821L3.52972 9.75587C3.30728 9.62939 3.21133 9.34371 3.37053 9.08856C3.49701 8.86613 3.78269 8.77017 4.03783 8.92937L7.59682 10.9945C7.81926 11.121 7.91521 11.4067 7.75601 11.6618C7.66224 11.821 7.50305 11.8843 7.34385 11.8843Z" fill="white"/>
<path d="M17.9881 12.395C17.1943 12.2686 16.5902 11.5685 16.5902 10.7115C16.5902 10.5523 16.6229 10.3931 16.6535 10.2666L16.0821 9.94824C16.0189 10.0115 15.9229 10.0747 15.827 10.138C15.5086 10.3604 15.1924 10.4869 14.9045 10.4869C14.6188 10.4869 14.3004 10.3604 13.9821 10.138C13.8861 10.0747 13.7923 10.0115 13.7269 9.94824L13.1228 10.2666C13.1556 10.3931 13.1861 10.5523 13.1861 10.7115C13.1861 11.538 12.582 12.2358 11.7882 12.395C11.7555 12.5215 11.7555 12.7134 11.7555 12.8072C11.7555 12.9337 11.7882 13.0929 11.7882 13.2194C12.582 13.3459 13.1861 14.0459 13.1861 14.8724C13.1861 15.0316 13.1534 15.1908 13.1228 15.3172L13.6637 15.6029C13.7269 15.5397 13.8229 15.4764 13.9188 15.4132C14.2677 15.2235 14.5861 15.0948 14.8718 15.0948C15.1902 15.0948 15.5064 15.2213 15.8248 15.4437C15.9207 15.507 16.0145 15.6029 16.0799 15.6335L16.6513 15.3151C16.6186 15.1886 16.5881 15.0294 16.5881 14.8702C16.5881 14.0437 17.1921 13.3459 17.9859 13.2172C18.0186 13.0907 18.0186 12.9315 18.0186 12.805C18.0208 12.6807 17.9881 12.5215 17.9881 12.395ZM14.8762 14.3948C14.0191 14.3948 13.2864 13.6948 13.2864 12.805C13.2864 11.948 13.9864 11.2153 14.8762 11.2153C15.7332 11.2153 16.4659 11.9153 16.4659 12.805C16.4637 13.697 15.7332 14.3948 14.8762 14.3948Z" fill="white"/>
</svg>
