<svg width="20" height="20" viewBox="0 0 20 20" fill="none" xmlns="http://www.w3.org/2000/svg">
<path fill-rule="evenodd" clip-rule="evenodd" d="M6 2C3.79086 2 2 3.79086 2 6V14C2 16.2091 3.79086 18 6 18H14C16.2091 18 18 16.2091 18 14V6C18 3.79086 16.2091 2 14 2H6ZM11.5786 5.20068L14.794 8.41786C15.0676 8.68544 15.0676 9.12726 14.8002 9.40106C14.5265 9.66864 14.085 9.66864 13.8175 9.40106C13.4466 9.02995 12.8451 9.02995 12.4741 9.40106L12.0948 9.78065C11.7444 10.1313 11.7444 10.6995 12.0948 11.0501C12.5488 11.5044 12.5488 12.2449 12.0948 12.6991L10.7887 14.0059C9.46396 15.3314 7.31828 15.3314 5.99355 14.0059C4.66882 12.6805 4.66882 10.5336 5.99355 9.20815L7.29962 7.90137C7.75363 7.44711 8.49374 7.44711 8.94775 7.90137C9.3013 8.25511 9.87487 8.25457 10.2278 7.90019L10.5971 7.52924C10.9677 7.15713 10.9671 6.55531 10.5959 6.18388C10.3285 5.91008 10.3285 5.46826 10.5959 5.20068C10.8695 4.93311 11.3111 4.93311 11.5786 5.20068ZM7.34937 13.2156L9.76871 10.795C9.93042 10.6394 9.93042 10.3843 9.76871 10.2225C9.60701 10.0669 9.35201 10.0669 9.19653 10.2225L6.77719 12.6431C6.6217 12.8049 6.6217 13.06 6.77719 13.2156C6.85804 13.2965 6.95755 13.3339 7.06328 13.3339C7.16901 13.3339 7.26852 13.2965 7.34937 13.2156Z" fill="white"/>
</svg>
