<svg width="20" height="20" viewBox="0 0 20 20" fill="none" xmlns="http://www.w3.org/2000/svg">
<path d="M10.3057 2.25923L16.0949 6.41442C16.3749 6.61541 16.603 6.88018 16.7604 7.18684C16.9178 7.49349 17 7.83322 17 8.17791V14.8786C17 16.0776 16.028 17.0496 14.8289 17.0496H11.8684V13.8917C11.8684 12.5838 10.808 11.5233 9.5 11.5233C8.19204 11.5233 7.13158 12.5838 7.13158 13.8917V17.0496H4.17105C2.97204 17.0496 2 16.0776 2 14.8786V8.17811C2.00001 7.83338 2.08212 7.49362 2.23951 7.18693C2.39691 6.88023 2.62508 6.61543 2.90513 6.41442L8.69434 2.25923C8.92916 2.09066 9.21094 2 9.5 2C9.78906 2 10.0708 2.09066 10.3057 2.25923Z" fill="white"/>
</svg>
