<svg width="32" height="32" viewBox="0 0 32 32" fill="none" xmlns="http://www.w3.org/2000/svg">
<path d="M16.0003 2.66669C8.64232 2.66669 2.66699 8.64202 2.66699 16C2.66699 23.358 8.64232 29.3334 16.0003 29.3334C23.3583 29.3334 29.3337 23.358 29.3337 16C29.3337 8.64202 23.3583 2.66669 16.0003 2.66669ZM27.309 15.0127H23.8523C23.7043 11.358 22.7163 8.14802 21.1857 5.92602C22.8936 6.79643 24.3519 8.08727 25.4232 9.67697C26.4944 11.2667 27.1434 13.1029 27.309 15.0127ZM15.013 4.79002V15.0134H10.1237C10.321 9.92669 12.3957 5.68002 15.013 4.79069V4.79002ZM15.013 16.9874V27.21C12.3957 26.3207 10.321 22.074 10.1237 16.9874H15.013ZM16.9877 27.21V16.9867H21.877C21.6797 22.0734 19.605 26.32 16.9877 27.2094V27.21ZM16.9877 15.0127V4.79002C19.605 5.67935 21.6797 9.92602 21.877 15.0127H16.987H16.9877ZM10.7657 5.92602C9.23499 8.14802 8.24699 11.358 8.09899 15.0127H4.64233C5.03766 11.062 7.40766 7.65402 10.7657 5.92602ZM4.69166 16.9867H8.14833C8.29633 20.6414 9.28433 23.8514 10.815 26.0734C9.10703 25.2029 7.64874 23.9121 6.57747 22.3224C5.5062 20.7327 4.85722 18.8965 4.69166 16.9867ZM21.235 26.0734C22.7657 23.8514 23.7537 20.6414 23.9017 16.9867H27.3583C26.963 20.9374 24.593 24.3454 21.235 26.0734Z" fill="white"/>
</svg>
