<svg width="33" height="32" viewBox="0 0 33 32" fill="none" xmlns="http://www.w3.org/2000/svg">
<path d="M31.2777 21.2216V9.04395L24.9241 15.3994L31.2777 21.2197M20.5542 19.7674C20.0413 20.2833 19.4311 20.6923 18.7591 20.9708C18.0871 21.2493 17.3665 21.3918 16.6391 21.39C15.1606 21.39 13.7683 20.8136 12.7221 19.7674L9.31417 16.3576L2.00049 23.0612V24.1841C2.00049 25.6532 3.19448 26.8472 4.66171 26.8472H28.6165C30.0837 26.8472 31.2777 25.6532 31.2777 24.186V23.0257L23.9808 16.3408L20.5561 19.7656" fill="black"/>
<path d="M28.6707 4H4.71598C3.25063 4 2.0585 5.19399 2.0585 6.66122V7.21705L13.7196 18.8819C14.515 19.6754 15.5723 20.1133 16.6952 20.1133C17.82 20.1133 18.8774 19.6754 19.6709 18.8819L31.3338 7.21705V6.66122C31.3338 5.19399 30.1361 4 28.6707 4ZM2.00049 9.0436V21.2549L8.37095 15.4159L2.00049 9.0436Z" fill="black"/>
</svg>
