<svg width="28" height="28" viewBox="0 0 28 28" fill="none" xmlns="http://www.w3.org/2000/svg">
<g clipPath="url(#clip0_1252_1051)">
<path d="M25.6178 21.4863C25.8716 21.0943 26.1008 20.6918 26.3143 20.277C26.3651 20.1773 26.4106 20.0758 26.4596 19.9743C26.6223 19.6383 26.7711 19.2953 26.9058 18.9453C26.9601 18.8035 27.0126 18.6618 27.0633 18.5183C27.1753 18.1928 27.2733 17.8638 27.3626 17.5295C27.4046 17.3685 27.4501 17.2093 27.4868 17.0483C27.5638 16.7035 27.6233 16.3518 27.6741 15.9965C27.6968 15.8443 27.7266 15.6955 27.7441 15.5415C27.8001 15.034 27.8351 14.5213 27.8351 14.0015C27.8351 6.37327 21.6278 0.166016 13.9996 0.166016C6.37131 0.166016 0.164062 6.37152 0.164062 13.9998C0.164062 14.5213 0.199062 15.034 0.255062 15.5398C0.272562 15.6938 0.302313 15.8425 0.325062 15.9965C0.377562 16.35 0.435313 16.7 0.512313 17.0448C0.549062 17.2093 0.594562 17.3685 0.636562 17.5278C0.725812 17.862 0.823813 18.1928 0.935813 18.5165C0.984812 18.66 1.03731 18.8018 1.09156 18.9435C1.22631 19.2935 1.37681 19.6365 1.53781 19.9725C1.58681 20.074 1.63231 20.1755 1.68306 20.2753C1.89481 20.69 2.12581 21.0925 2.37781 21.481C2.38656 21.4968 2.39531 21.5125 2.40581 21.5265C4.87856 25.3205 9.14856 27.8353 13.9996 27.8353C18.8506 27.8353 23.1223 25.3188 25.5916 21.5283C25.6003 21.5143 25.6091 21.5003 25.6178 21.4863ZM13.9996 6.79326C16.8048 6.79326 19.0851 9.07527 19.0851 11.8788C19.0851 14.6858 16.8031 16.9695 13.9996 16.9695C11.1961 16.9695 8.91406 14.6858 8.91406 11.8788C8.91406 9.07527 11.1943 6.79326 13.9996 6.79326ZM5.58906 22.6623C7.03281 19.3618 10.3123 17.1515 13.9996 17.1515C17.6868 17.1515 20.9663 19.3635 22.4118 22.6605C20.2331 24.7763 17.2686 26.0853 13.9996 26.0853C10.7306 26.0853 7.76606 24.7763 5.58906 22.6623Z" fill="url(#paint0_linear_1252_1051)"/>
</g>
<defs>
<linearGradient id="paint0_linear_1252_1051" x1="1.5" y1="7.5" x2="23" y2="25" gradientUnits="userSpaceOnUse">
<stop stop-color="#9DD1AB"/>
<stop offset="1" stop-color="#21D1AB"/>
</linearGradient>
<clipPath id="clip0_1252_1051">
<rect width="28" height="28" fill="white"/>
</clipPath>
</defs>
</svg>
