<svg width="30" height="30" viewBox="0 0 30 30" fill="none" xmlns="http://www.w3.org/2000/svg">
<path d="M9.06904 8.76111C8.3671 8.76111 7.7981 9.33003 7.7981 10.0319C7.7981 10.7339 8.3671 11.3029 9.06904 11.3029C9.77098 11.3029 10.34 10.7339 10.34 10.0319C10.34 9.33 9.77101 8.76111 9.06904 8.76111ZM9.06904 18.9281C8.3671 18.9281 7.7981 19.4972 7.7981 20.199C7.7981 20.9009 8.3671 21.4699 9.06904 21.4699C9.77098 21.4699 10.34 20.9009 10.34 20.199C10.34 19.4972 9.77101 18.9281 9.06904 18.9281ZM9.06904 13.8446C8.3671 13.8446 7.7981 14.4136 7.7981 15.1155C7.7981 15.8174 8.3671 16.3864 9.06904 16.3864C9.77098 16.3864 10.34 15.8174 10.34 15.1155C10.34 14.4136 9.77101 13.8446 9.06904 13.8446ZM21.7785 18.9281H14.1528C13.4509 18.9281 12.8819 19.4972 12.8819 20.199C12.8819 20.9009 13.4509 21.4699 14.1528 21.4699H21.7785C22.4804 21.4699 23.0494 20.9009 23.0494 20.199C23.0494 19.4972 22.4804 18.9281 21.7785 18.9281ZM21.7785 8.76111H14.1528C13.4509 8.76111 12.8819 9.33003 12.8819 10.0319C12.8819 10.7339 13.4509 11.3029 14.1528 11.3029H21.7785C22.4804 11.3029 23.0494 10.7339 23.0494 10.0319C23.0494 9.33 22.4804 8.76111 21.7785 8.76111ZM25.5913 1.13574H5.25623C3.85241 1.13574 2.71436 2.27376 2.71436 3.67749V26.5535C2.71436 27.9572 3.85241 29.0952 5.25623 29.0952H25.5913C26.9952 29.0952 28.1331 27.9572 28.1331 26.5535V3.67749C28.1331 2.27376 26.9952 1.13574 25.5913 1.13574ZM25.5913 25.2826C25.5913 25.9845 25.0222 26.5535 24.3203 26.5535H6.52718C5.82524 26.5535 5.25623 25.9845 5.25623 25.2826V4.94838C5.25623 4.24653 5.82524 3.67749 6.52718 3.67749H24.3203C25.0223 3.67749 25.5913 4.24656 25.5913 4.94838V25.2826ZM21.7785 13.8446H14.1528C13.4509 13.8446 12.8819 14.4136 12.8819 15.1155C12.8819 15.8174 13.4509 16.3864 14.1528 16.3864H21.7785C22.4804 16.3864 23.0494 15.8174 23.0494 15.1155C23.0494 14.4136 22.4804 13.8446 21.7785 13.8446Z" fill="url(#paint0_linear_1790_94)"/>
<defs>
<linearGradient id="paint0_linear_1790_94" x1="1.35007" y1="15.1502" x2="29.6251" y2="15.1502" gradientUnits="userSpaceOnUse">
<stop stop-color="#92D2AB"/>
<stop offset="1" stop-color="#2FD2AB"/>
</linearGradient>
</defs>
</svg>
