<svg width="32" height="32" viewBox="0 0 32 32" fill="none" xmlns="http://www.w3.org/2000/svg">
<g clipPath="url(#clip0_205_103)">
<path d="M16 0.5C7.4375 0.5 0.5 7.4375 0.5 16C0.5 24.5625 7.4375 31.5 16 31.5C24.5625 31.5 31.5 24.5625 31.5 16C31.5 7.4375 24.5625 0.5 16 0.5ZM23.6125 11.1187L21.0688 23.1063C20.8813 23.9563 20.375 24.1625 19.6688 23.7625L15.7937 20.9062L13.925 22.7062C13.7188 22.9125 13.5437 23.0875 13.1438 23.0875L13.4187 19.1437L20.6 12.6562C20.9125 12.3813 20.5312 12.225 20.1187 12.5L11.2437 18.0875L7.41875 16.8937C6.5875 16.6312 6.56875 16.0625 7.59375 15.6625L22.5375 9.9C23.2313 9.65 23.8375 10.0687 23.6125 11.1187Z" fill="black"/>
</g>
<defs>
<clipPath id="clip0_205_103">
<rect width="32" height="32" fill="white"/>
</clipPath>
</defs>
</svg>
