<svg width="32" height="32" viewBox="0 0 32 32" fill="none" xmlns="http://www.w3.org/2000/svg">
<path d="M32 6.08017C30.8004 6.61358 29.5276 6.96415 28.224 7.12017C29.593 6.29919 30.6166 5.00826 31.104 3.48817C29.8131 4.25513 28.4009 4.79623 26.928 5.08817C26.0257 4.13325 24.8574 3.47128 23.5745 3.188C22.2915 2.90472 20.9531 3.01318 19.7326 3.49933C18.512 3.98548 17.4656 4.82693 16.7287 5.91468C15.9919 7.00243 15.5987 8.28636 15.6 9.60017C15.6022 10.1012 15.6612 10.6004 15.776 11.0882C13.1633 10.9555 10.6078 10.2743 8.2757 9.08893C5.94359 7.90358 3.88711 6.24061 2.24 4.20817C1.65411 5.20785 1.34485 6.34545 1.344 7.50417C1.31494 8.57383 1.55455 9.63371 2.0409 10.5869C2.52726 11.54 3.24483 12.356 4.128 12.9602C3.04 12.9282 1.008 12.6402 1.008 12.1442V12.2242C1.04844 13.7466 1.60603 15.2099 2.58898 16.3731C3.57194 17.5364 4.92167 18.3303 6.416 18.6242C5.89512 18.7702 5.35697 18.8456 4.816 18.8482C4.41332 18.8496 4.01145 18.8121 3.616 18.7362C4.0385 20.0409 4.85743 21.1814 5.95872 21.9988C7.06 22.8161 8.3888 23.2697 9.76 23.2962C7.43849 25.1376 4.56317 26.1412 1.6 26.1442C1.06525 26.1434 0.531005 26.1113 0 26.0482C3.00272 27.9748 6.49635 28.9968 10.064 28.9922C12.5262 29.0177 14.9687 28.5527 17.2492 27.6242C19.5298 26.6957 21.6025 25.3223 23.3466 23.5842C25.0907 21.8461 26.4711 19.778 27.4074 17.5007C28.3437 15.2234 28.8171 12.7824 28.8 10.3202V9.47217C30.0575 8.53809 31.1407 7.3899 32 6.08017Z" fill="black"/>
</svg>
