<svg width="20" height="20" viewBox="0 0 20 20" fill="none" xmlns="http://www.w3.org/2000/svg">
<path d="M15.6611 14.3363L11.3261 10L15.6623 5.66377C16.0298 5.29627 16.0311 4.70377 15.6636 4.33627C15.2973 3.97002 14.7023 3.97002 14.3373 4.33627L9.9998 8.67252L5.66231 4.33627C5.29731 3.97002 4.70355 3.97002 4.33605 4.33627C3.97105 4.70252 3.97105 5.29752 4.33855 5.66502L8.67355 10L4.3373 14.335C3.9698 14.7013 3.9698 15.295 4.33605 15.6625C4.5198 15.8475 4.7623 15.9375 4.9998 15.9375C5.2373 15.9375 5.47981 15.8475 5.66231 15.6638L9.9998 11.3275L14.3373 15.6638C14.5211 15.8463 14.7611 15.9375 14.9998 15.9375C15.2398 15.9375 15.4798 15.8475 15.6623 15.6638C16.0286 15.295 16.0298 14.7025 15.6611 14.3363Z" fill="white"/>
</svg>
