<svg xmlns="http://www.w3.org/2000/svg" xmlns:xlink="http://www.w3.org/1999/xlink" fill="none" version="1.1" width="8" height="14.999755859375" viewBox="0 0 8 14.999755859375"><g transform="matrix(1,-4.2146844236867764e-8,4.2146844236867764e-8,-1,-6.32223243066804e-7,30.0009765625)"><path d="M7.86661,15.84539128125C8.04444,16.03850828125,8.04444,16.35162828125,7.86661,16.54474828125L2.37626,22.507198281249998L7.85538,28.45748828125C8.03321,28.650588281250002,8.03321,28.96368828125,7.85538,29.15678828125L7.2114,29.85618828125C7.03357,30.04928828125,6.74525,30.04928828125,6.56742,29.85618828125L0.14139,22.87757828125C0.0787283,22.80952828125,0.0381469,22.72659828125,0.0196407,22.63926828125C-0.0276019,22.47025828125,0.0102941,22.27918828125,0.133367,22.14552828125L6.57865,15.14603628125C6.75648,14.95291458125,7.0448,14.95291598125,7.22263,15.14603628125L7.86661,15.84539128125Z" fill-rule="evenodd" fill="#FFFFFF" fill-opacity="1"/></g></svg>